<svg width="40" height="40" viewBox="0 0 40 40" fill="none" xmlns="http://www.w3.org/2000/svg">
<path d="M15.725 29.3063C19.4691 29.3063 22.6515 27.9907 25.2724 25.3595C27.8932 22.7283 29.2036 19.5338 29.2036 15.7758C29.2036 12.0178 27.8932 8.82327 25.2724 6.1921C22.6515 3.56093 19.4691 2.24609 15.725 2.24759C11.981 2.24908 8.79853 3.56467 6.17769 6.19435C3.55685 8.82402 2.24643 12.0178 2.24643 15.7758C2.24643 19.5338 3.55685 22.7283 6.17769 25.3595C8.79853 27.9907 11.981 29.3063 15.725 29.3063ZM14.9231 21.2442C14.7089 21.0299 14.6018 20.7632 14.6018 20.444V9.29377C14.6018 8.97461 14.7096 8.70715 14.9253 8.49138C15.141 8.27561 15.4083 8.16848 15.7273 8.16997C16.0463 8.17147 16.3129 8.27861 16.527 8.49138C16.7412 8.70415 16.8483 8.97161 16.8483 9.29377V20.444C16.8483 20.7632 16.7404 21.0307 16.5248 21.2464C16.3091 21.4622 16.0418 21.5693 15.7228 21.5678C15.4038 21.5663 15.1372 21.4592 14.9231 21.2464M7.40649 21.2464C7.19233 21.0307 7.08525 20.7632 7.08525 20.444V13.5754C7.08525 13.2563 7.19308 12.9888 7.40874 12.773C7.6244 12.5573 7.89172 12.4501 8.21072 12.4516C8.52971 12.4531 8.79629 12.5603 9.01045 12.773C9.22461 12.9858 9.33169 13.2533 9.33169 13.5754V20.4463C9.33169 20.7654 9.22386 21.0329 9.0082 21.2487C8.79254 21.4629 8.52522 21.5701 8.20622 21.5701C7.88723 21.5701 7.62065 21.4629 7.40649 21.2487M22.4419 21.2487C22.2262 21.0329 22.1184 20.7654 22.1184 20.4463V15.7331C22.1184 15.4139 22.2262 15.1472 22.4419 14.933C22.6575 14.7172 22.9249 14.6093 23.2439 14.6093C23.5628 14.6093 23.8294 14.7172 24.0436 14.933C24.2577 15.1487 24.3648 15.4154 24.3648 15.7331V20.444C24.3648 20.7632 24.257 21.0299 24.0413 21.2442C23.8257 21.4584 23.5591 21.5663 23.2416 21.5678C22.9241 21.5693 22.6575 21.4614 22.4419 21.2442M15.725 31.4662C11.3355 31.4662 7.61691 29.9431 4.56925 26.8969C1.52308 23.8491 0 20.1301 0 15.7398C0 11.3496 1.52308 7.62906 4.56925 4.57833C7.61541 1.52761 11.3318 0.00149949 15.7183 1.10392e-06C20.1048 -0.00149729 23.8242 1.52237 26.8763 4.57159C29.9255 7.62231 31.4501 11.3428 31.4501 15.7331C31.4501 17.7065 31.1079 19.5742 30.4235 21.3363C29.739 23.0984 28.7985 24.6613 27.6019 26.0248L39.6855 38.1146C39.8952 38.3153 40 38.5701 40 38.8787C40 39.1874 39.8952 39.4556 39.6855 39.6834C39.4758 39.9111 39.2108 40.016 38.8903 39.998C38.5698 39.98 38.3047 39.8677 38.095 39.6609L26.0541 27.6138C24.6628 28.8125 23.0866 29.7543 21.3254 30.439C19.5642 31.1238 17.6974 31.4662 15.725 31.4662Z" fill="currentColor"/>
</svg>
