<svg width="60" height="60" viewBox="0 0 60 60" fill="none" xmlns="http://www.w3.org/2000/svg">
<rect x="0.5" y="0.5" width="59" height="59" rx="29.5" fill="#D9D9D9"/>
<rect x="0.5" y="0.5" width="59" height="59" rx="29.5" stroke="#047857"/>
<path d="M34.5467 35.906C34.46 35.8932 34.3717 35.9041 34.2895 35.9379C34.2073 35.9716 34.1336 36.0271 34.0745 36.0997C34.0148 36.1716 33.971 36.2583 33.9466 36.3527C33.9223 36.4472 33.9181 36.5468 33.9345 36.6435C34.2412 38.456 35.2734 40.9435 38.4423 42.4922C38.8178 42.6747 39.3978 42.8172 40.1334 42.996C42.8867 43.666 47.4912 44.7885 48.6223 49.536C48.6412 49.6153 48.6739 49.6897 48.7184 49.7549C48.763 49.82 48.8185 49.8747 48.8818 49.9157C48.9451 49.9568 49.0149 49.9834 49.0874 49.994C49.1598 50.0047 49.2334 49.9992 49.3039 49.9779C49.3745 49.9565 49.4406 49.9198 49.4985 49.8697C49.5564 49.8196 49.605 49.7571 49.6415 49.6859C49.678 49.6147 49.7016 49.5361 49.7111 49.4546C49.7206 49.3731 49.7157 49.2903 49.6967 49.211C48.3889 43.7272 43.1723 42.456 40.3689 41.7735C39.72 41.6147 39.1589 41.4785 38.8845 41.3435C36.98 40.4135 35.75 39.0335 35.2167 37.236C40.5078 37.6785 42.9034 35.3072 43.0089 35.1997C43.074 35.1334 43.1242 35.0507 43.1554 34.9584C43.1866 34.8661 43.1978 34.7667 43.1883 34.6685C43.1787 34.5703 43.1487 34.4761 43.1005 34.3935C43.0523 34.3109 42.9874 34.2424 42.9112 34.1935C39.8578 32.231 39.8578 25.4497 39.8578 22.896C39.8578 15.7547 35.5823 10.0935 30.1012 10.0047L29.9445 10.001C24.3834 10.036 19.8578 15.7035 19.8578 22.636C19.8578 25.1897 19.8578 31.9722 16.8045 33.9335C16.7258 33.9849 16.6594 34.0572 16.6112 34.144C16.563 34.2309 16.5343 34.3297 16.5278 34.4318C16.5212 34.5339 16.5369 34.6363 16.5735 34.7301C16.6101 34.8238 16.6665 34.9061 16.7378 34.9697C16.8912 35.1035 20.28 38.021 24.45 37.1347C23.8923 38.8572 22.6789 40.1822 20.83 41.086C20.5623 41.2172 20.0289 41.361 19.4112 41.526C16.5889 42.281 11.3345 43.6872 10.0189 49.2097C10 49.2891 9.99522 49.3719 10.0048 49.4533C10.0143 49.5348 10.038 49.6133 10.0745 49.6845C10.1483 49.8282 10.2698 49.933 10.4123 49.976C10.5547 50.0189 10.7066 49.9964 10.8343 49.9134C10.962 49.8304 11.0552 49.6938 11.0934 49.5335C12.2367 44.7285 16.89 43.4847 19.6689 42.7397C20.3656 42.5535 20.9156 42.406 21.2734 42.2322C24.4423 40.6835 25.4734 38.196 25.7812 36.3835C25.7991 36.2773 25.7922 36.1677 25.7613 36.0654C25.7303 35.9631 25.6763 35.8715 25.6045 35.7997C25.5328 35.7278 25.4458 35.6781 25.3519 35.6553C25.2581 35.6325 25.1606 35.6375 25.0689 35.6697C22.0612 36.7347 19.2823 35.2697 18.0678 34.4572C20.9689 31.7247 20.9689 25.436 20.9689 22.636C20.9689 16.3897 24.9978 11.2822 29.9912 11.2485L30.1089 11.256C35.0334 11.3347 38.7467 16.3385 38.7467 22.896C38.7467 25.6972 38.7467 31.9997 41.66 34.7322C40.6567 35.3772 38.3689 36.421 34.5467 35.906Z" fill="#047857"/>
</svg>
