<svg width="40" height="40" viewBox="0 0 40 40" fill="none" xmlns="http://www.w3.org/2000/svg">
<path fill-rule="evenodd" clip-rule="evenodd" d="M2.7998 9.6001V37.2001H36.7998V35.2001H4.7998V9.6001H2.7998Z" fill="currentColor"/>
<path fill-rule="evenodd" clip-rule="evenodd" d="M27.2877 13.3851C27.1527 13.3884 27.0197 13.419 26.8969 13.4751C26.774 13.5312 26.6638 13.6116 26.5729 13.7115L18.2649 22.8443L13.8025 19.9491C13.6922 19.8775 13.5688 19.8284 13.4394 19.8046C13.3101 19.7808 13.1773 19.7827 13.0487 19.8103C12.9201 19.8379 12.7982 19.8905 12.69 19.9653C12.5818 20.04 12.4894 20.1354 12.4181 20.2459L6.6061 29.2579C5.8797 30.3795 7.5661 31.4667 8.2877 30.3415L13.5557 22.1727L17.8893 24.9847C18.0882 25.1138 18.3266 25.1679 18.5618 25.1375C18.797 25.1071 19.0137 24.9941 19.1733 24.8187L27.1977 15.9975L35.1729 27.7607C35.9129 28.9023 37.6141 27.7495 36.8281 26.6391L28.1401 13.8231C28.046 13.6845 27.9187 13.5718 27.7698 13.4953C27.6209 13.4188 27.4551 13.3809 27.2877 13.3851Z" fill="currentColor"/>
<path d="M0.95752 6.80181V5.71781L4.08272 2.66901L1.18192 2.69861V1.54541H6.23552V2.53021L3.07552 5.61381L6.41392 5.57901V6.80181H0.95752Z" fill="currentColor"/>
</svg>
