<svg width="40" height="40" viewBox="0 0 40 40" fill="none" xmlns="http://www.w3.org/2000/svg">
<path d="M25.9858 34.9336L38.0409 22.6609C38.2518 22.4446 38.5109 22.3296 38.8182 22.3158C39.1255 22.302 39.3989 22.417 39.6384 22.6609C39.878 22.9048 39.9985 23.1755 40 23.4731C40.0015 23.7707 39.881 24.0422 39.6384 24.2876L27.2624 36.8893C26.8979 37.262 26.4723 37.4484 25.9858 37.4484C25.4992 37.4484 25.0736 37.262 24.7091 36.8893L18.7459 30.8174C18.535 30.6026 18.422 30.3388 18.407 30.0259C18.3919 29.713 18.5049 29.4346 18.7459 29.1907C18.9869 28.9468 19.2536 28.8241 19.5458 28.8225C19.8381 28.821 20.1047 28.9437 20.3457 29.1907L25.9858 34.9336ZM3.65156 40C2.63925 40 1.77758 39.638 1.06655 38.914C0.355516 38.19 0 37.3134 0 36.2842V6.9025C0 5.8748 0.355516 4.99818 1.06655 4.27265C1.77758 3.54865 2.63925 3.18666 3.65156 3.18666H14.1272C14.3381 2.2878 14.8074 1.53236 15.535 0.920334C16.2626 0.306778 17.1099 0 18.077 0C19.0622 0 19.9164 0.306778 20.6395 0.920334C21.3626 1.53082 21.8295 2.28626 22.0404 3.18666H32.5025C33.5148 3.18666 34.3765 3.54865 35.0875 4.27265C35.7986 4.99664 36.1541 5.87403 36.1541 6.9048V15.8412C36.1541 16.1695 36.0464 16.4433 35.831 16.6626C35.6156 16.882 35.3467 16.9917 35.0243 16.9917C34.7019 16.9917 34.433 16.882 34.2176 16.6626C34.0022 16.4433 33.8945 16.1695 33.8945 15.8412V6.9048C33.8945 6.55047 33.7498 6.22529 33.4606 5.92925C33.1714 5.63321 32.852 5.48596 32.5025 5.48749H27.1156V8.76158C27.1156 9.29537 26.9423 9.73866 26.5959 10.0915C26.2494 10.4443 25.814 10.6207 25.2898 10.6207H10.8643C10.3401 10.6207 9.90471 10.4443 9.55824 10.0915C9.21176 9.73866 9.03852 9.29537 9.03852 8.76158V5.48749H3.65156C3.30358 5.48749 2.98422 5.63474 2.69348 5.92925C2.40274 6.22376 2.25812 6.54894 2.25963 6.9048V36.2842C2.25963 36.6369 2.40425 36.9614 2.69348 37.2574C2.98271 37.5534 3.30132 37.7007 3.6493 37.6992H14.6876C15.01 37.6992 15.2789 37.8088 15.4943 38.0282C15.7097 38.2475 15.8174 38.5213 15.8174 38.8496C15.8174 39.1778 15.7097 39.4516 15.4943 39.671C15.2789 39.8903 15.01 40 14.6876 40H3.65156ZM19.3831 5.48979C19.7296 5.13699 19.9028 4.6937 19.9028 4.15991C19.9028 3.62611 19.7296 3.18282 19.3831 2.83003C19.0366 2.47723 18.6013 2.30083 18.077 2.30083C17.5528 2.30083 17.1175 2.47723 16.771 2.83003C16.4245 3.18282 16.2513 3.62611 16.2513 4.15991C16.2513 4.6937 16.4245 5.13699 16.771 5.48979C17.1175 5.84258 17.5528 6.01898 18.077 6.01898C18.6013 6.01898 19.0366 5.84258 19.3831 5.48979Z" fill="currentColor"/>
</svg>
