<svg width="40" height="40" viewBox="0 0 40 40" fill="none" xmlns="http://www.w3.org/2000/svg">
<path d="M37.3798 26.3158L33.4699 23.5789C34.1144 21.3053 34.1574 18.8421 33.4699 16.3789L37.3798 13.6842L34.2648 8.42105L29.9037 10.3579C28.2065 8.67368 26.0582 7.36842 23.5447 6.75789L23.115 2.10526H16.885L16.4553 6.75789C13.9418 7.36842 11.7935 8.67368 10.0963 10.3579L5.73523 8.42105L2.62018 13.6842L6.5301 16.3789C5.84265 18.8421 5.88561 21.3053 6.5301 23.5789L2.62018 26.3158L5.73523 31.5789L10.0963 29.6211C11.7935 31.2842 13.9418 32.5474 16.4553 33.2L16.885 37.8947H23.115L23.5447 33.2C26.0582 32.5474 28.2065 31.2842 29.9037 29.6211L34.2648 31.5789L37.3798 26.3158ZM24.2966 0C24.8767 0 25.3708 0.421053 25.3708 0.968421L25.7575 5.26316C27.3902 5.85263 28.851 6.71579 30.1615 7.74737L34.1359 5.91579C34.63 5.66316 35.253 5.83158 35.5538 6.31579L39.8504 13.6842C40.1511 14.1263 39.9793 14.7368 39.5066 15.0526L35.919 17.5158C36.1982 19.2 36.1768 20.8632 35.919 22.4842L39.5066 24.9474C39.9793 25.2632 40.1511 25.8737 39.8504 26.3158L35.5538 33.6842C35.253 34.1263 34.63 34.2947 34.1359 34.0421L30.1615 32.2316C28.851 33.2632 27.3902 34.1053 25.7575 34.7368L25.3708 38.9474C25.3708 39.5579 24.8767 40 24.2966 40H15.7034C15.4185 40 15.1453 39.8891 14.9438 39.6917C14.7424 39.4943 14.6292 39.2265 14.6292 38.9474L14.2425 34.7368C12.6098 34.1053 11.149 33.2632 9.8385 32.2316L5.86413 34.0421C5.37002 34.2947 4.74701 34.1263 4.44625 33.6842L0.149627 26.3158C-0.151136 25.8737 0.0207287 25.2632 0.493357 24.9474L4.08103 22.4842C3.82324 20.8632 3.80175 19.2 4.08103 17.5158L0.493357 15.0526C0.0207287 14.7368 -0.151136 14.1263 0.149627 13.6842L4.44625 6.31579C4.74701 5.83158 5.37002 5.66316 5.86413 5.91579L9.8385 7.74737C11.149 6.71579 12.6098 5.85263 14.2425 5.26316L14.6292 0.968421C14.6292 0.421053 15.1233 0 15.7034 0H24.2966ZM20 12.6316C21.9942 12.6316 23.9067 13.4079 25.3168 14.7897C26.7269 16.1716 27.5191 18.0458 27.5191 20C27.5191 21.9542 26.7269 23.8284 25.3168 25.2103C23.9067 26.5921 21.9942 27.3684 20 27.3684C18.0058 27.3684 16.0933 26.5921 14.6832 25.2103C13.2731 23.8284 12.4809 21.9542 12.4809 20C12.4809 18.0458 13.2731 16.1716 14.6832 14.7897C16.0933 13.4079 18.0058 12.6316 20 12.6316ZM20 14.7368C18.5756 14.7368 17.2095 15.2914 16.2023 16.2784C15.1951 17.2654 14.6292 18.6041 14.6292 20C14.6292 21.3959 15.1951 22.7346 16.2023 23.7216C17.2095 24.7086 18.5756 25.2632 20 25.2632C21.4244 25.2632 22.7905 24.7086 23.7977 23.7216C24.8049 22.7346 25.3708 21.3959 25.3708 20C25.3708 18.6041 24.8049 17.2654 23.7977 16.2784C22.7905 15.2914 21.4244 14.7368 20 14.7368Z" fill="currentColor"/>
</svg>
