<svg width="40" height="40" viewBox="0 0 40 40" fill="none" xmlns="http://www.w3.org/2000/svg">
<path d="M24.118 0.325571C24.3263 0.533801 24.4433 0.816184 24.4433 1.11062C24.4433 1.40506 24.3263 1.68744 24.118 1.89567L21.5702 4.44181L24.118 6.98794C24.3204 7.19737 24.4324 7.47786 24.4298 7.769C24.4273 8.06014 24.3104 8.33864 24.1044 8.54452C23.8984 8.75039 23.6197 8.86717 23.3284 8.8697C23.0371 8.87223 22.7564 8.76031 22.5469 8.55804L19.9991 6.01191L17.4513 8.55804C17.3481 8.66114 17.2255 8.7429 17.0907 8.79867C16.9558 8.85443 16.8113 8.88311 16.6654 8.88306C16.5194 8.88301 16.3749 8.85423 16.2401 8.79837C16.1053 8.74251 15.9828 8.66066 15.8797 8.55749C15.7765 8.45432 15.6947 8.33186 15.6389 8.19709C15.5831 8.06233 15.5544 7.91789 15.5544 7.77205C15.5545 7.6262 15.5833 7.48179 15.6392 7.34706C15.6951 7.21233 15.777 7.08993 15.8802 6.98683L18.428 4.44181L15.8802 1.89567C15.7771 1.7925 15.6952 1.67004 15.6394 1.53527C15.5836 1.40051 15.5549 1.25608 15.555 1.11023C15.555 0.96438 15.5838 0.819969 15.6397 0.685242C15.6956 0.550515 15.7775 0.42811 15.8808 0.325016C15.984 0.221922 16.1065 0.140157 16.2414 0.0843909C16.3762 0.0286246 16.5208 -5.1487e-05 16.6667 6.93959e-08C16.8127 5.16258e-05 16.9572 0.0288296 17.092 0.0846911C17.2268 0.140553 17.3493 0.222404 17.4524 0.325571L19.9991 2.87171L22.5469 0.325571C22.7552 0.117404 23.0378 0.000462304 23.3324 0.000462304C23.627 0.000462304 23.9096 0.117404 24.118 0.325571ZM14.6635 29.6789C15.4075 29.9266 16.209 29.9438 16.9629 29.7282C17.7167 29.5126 18.3878 29.0743 18.888 28.4708V40L5.55469 34.9777V26.6453L14.6635 29.6789Z" fill="currentColor"/>
<path fill-rule="evenodd" clip-rule="evenodd" d="M34.444 34.9775L21.1107 39.9998V28.4706C21.6108 29.0741 22.2819 29.5125 23.0358 29.7281C23.7897 29.9436 24.5912 29.9265 25.3351 29.6787L34.444 26.6451V34.9775ZM20.3629 10.0547C20.1275 9.9733 19.8716 9.9733 19.6362 10.0547L5.19405 15.0515L5.1685 15.0592C4.97433 15.1314 4.80422 15.2564 4.67739 15.4201L0.244065 20.9588C0.132089 21.0984 0.0555421 21.263 0.0209416 21.4386C-0.0136588 21.6142 -0.00528743 21.7955 0.0453434 21.9671C0.0959743 22.1388 0.187365 22.2957 0.311731 22.4244C0.436097 22.5531 0.589755 22.6499 0.759619 22.7065L15.7596 27.7033C15.9867 27.7788 16.2322 27.7789 16.4594 27.7037C16.6867 27.6284 16.8835 27.4819 17.0207 27.2858L19.9996 23.033L22.9773 27.2858C23.1145 27.4821 23.3116 27.6288 23.5391 27.7041C23.7665 27.7793 24.0122 27.779 24.2395 27.7033L39.2395 22.7065C39.4095 22.6501 39.5632 22.5534 39.6877 22.4247C39.8122 22.296 39.9037 22.1391 39.9545 21.9675C40.0052 21.7958 40.0137 21.6144 39.9792 21.4388C39.9446 21.2632 39.8681 21.0985 39.7562 20.9588L35.3228 15.4201C35.19 15.2491 35.01 15.1205 34.8051 15.0504L20.3629 10.0547ZM19.9996 19.9228L31.0473 16.1008L19.9996 12.2788L8.95182 16.1008L19.9996 19.9228Z" fill="currentColor"/>
</svg>
