<svg width="42" height="42" viewBox="0 0 42 42" fill="currentColor" xmlns="http://www.w3.org/2000/svg">
<path d="M37.6667 1H4.33333C3.44928 1 2.60143 1.35119 1.97631 1.97631C1.35119 2.60143 1 3.44928 1 4.33333V37.6667C1 38.5507 1.35119 39.3986 1.97631 40.0237C2.60143 40.6488 3.44928 41 4.33333 41H37.6667C38.5507 41 39.3986 40.6488 40.0237 40.0237C40.6488 39.3986 41 38.5507 41 37.6667V4.33333C41 3.44928 40.6488 2.60143 40.0237 1.97631C39.3986 1.35119 38.5507 1 37.6667 1Z" fill="currentColor" stroke="white" stroke-width="2" stroke-linecap="round" stroke-linejoin="round"/>
<path d="M17.6664 28.7778L23.222 33.2222L32.1109 22.1111M9.88867 11H32.1109H9.88867ZM9.88867 19.8889H18.7776H9.88867Z" fill="currentColor"/>
<path d="M17.6664 28.7778L23.222 33.2222L32.1109 22.1111M9.88867 11H32.1109M9.88867 19.8889H18.7776" stroke="white" stroke-width="2" stroke-linecap="round" stroke-linejoin="round"/>
</svg>

